# Blender 5.0.1
# www.blender.org
mtllib car_white.mtl
o Cube.012
v 0.722457 1.844642 1.443118
v 0.722457 1.389856 1.443118
v 0.718318 1.844642 1.443118
v 0.718318 1.389856 1.443118
v 0.722457 1.844642 0.603275
v 0.722457 1.389856 0.603275
v 0.718318 1.844642 0.603275
v 0.718318 1.389856 0.603275
v 0.722457 1.844642 0.603275
v 0.722457 1.389856 0.603275
v 0.718318 1.844642 0.603275
v 0.718318 1.389856 0.603275
vn -1.0000 -0.0000 -0.0000
vn -0.0000 -0.0000 1.0000
vn -0.0000 1.0000 -0.0000
vn -0.0000 -1.0000 -0.0000
vn 1.0000 -0.0000 -0.0000
vt 0.375000 0.625000
vt 0.625000 0.625000
vt 0.625000 0.750000
vt 0.375000 0.750000
vt 0.625000 1.000000
vt 0.375000 1.000000
vt 0.125000 0.625000
vt 0.125000 0.750000
vt 0.875000 0.625000
vt 0.875000 0.750000
vt 0.375000 0.000000
vt 0.625000 0.000000
vt 0.625000 0.125000
vt 0.375000 0.125000
s 0
f 7/1/1 8/2/1 4/3/1 3/4/1
f 3/4/2 4/3/2 2/5/2 1/6/2
f 5/7/3 7/1/3 3/4/3 1/8/3
f 8/2/4 6/9/4 2/10/4 4/3/4
f 1/11/5 2/12/5 6/13/5 5/14/5
l 10 12
l 11 9
l 12 11
l 10 9
o Cube.013
v 0.722457 1.844642 0.539019
v 0.722457 1.389856 0.539019
v 0.718318 1.844642 0.539019
v 0.718318 1.389856 0.539019
v 0.722457 1.844642 -0.300824
v 0.722457 1.389856 -0.300824
v 0.718318 1.844642 -0.300824
v 0.718318 1.389856 -0.300824
v 0.722457 1.844642 -0.300824
v 0.722457 1.389856 -0.300824
v 0.718318 1.844642 -0.300824
v 0.718318 1.389856 -0.300824
vn -1.0000 -0.0000 -0.0000
vn -0.0000 -0.0000 1.0000
vn -0.0000 1.0000 -0.0000
vn -0.0000 -1.0000 -0.0000
vn 1.0000 -0.0000 -0.0000
vt 0.375000 0.625000
vt 0.625000 0.625000
vt 0.625000 0.750000
vt 0.375000 0.750000
vt 0.625000 1.000000
vt 0.375000 1.000000
vt 0.125000 0.625000
vt 0.125000 0.750000
vt 0.875000 0.625000
vt 0.875000 0.750000
vt 0.375000 0.000000
vt 0.625000 0.000000
vt 0.625000 0.125000
vt 0.375000 0.125000
s 0
f 19/15/6 20/16/6 16/17/6 15/18/6
f 15/18/7 16/17/7 14/19/7 13/20/7
f 17/21/8 19/15/8 15/18/8 13/22/8
f 20/16/9 18/23/9 14/24/9 16/17/9
f 13/25/10 14/26/10 18/27/10 17/28/10
l 22 24
l 23 21
l 24 23
l 22 21
o Cube.014
v -0.664126 1.901848 1.600195
v -0.664126 1.389769 1.600195
v -0.664126 1.901848 1.596056
v -0.664126 1.389769 1.596056
v 0.668892 1.901848 1.600195
v 0.668892 1.389769 1.600195
v 0.668892 1.901848 1.596056
v 0.668892 1.389769 1.596056
v 0.668892 1.901848 1.600195
v 0.668892 1.389769 1.600195
v 0.668892 1.901848 1.596056
v 0.668892 1.389769 1.596056
vn -0.0000 -0.0000 -1.0000
vn -1.0000 -0.0000 -0.0000
vn -0.0000 1.0000 -0.0000
vn -0.0000 -1.0000 -0.0000
vn -0.0000 -0.0000 1.0000
vt 0.375000 0.625000
vt 0.625000 0.625000
vt 0.625000 0.750000
vt 0.375000 0.750000
vt 0.625000 1.000000
vt 0.375000 1.000000
vt 0.125000 0.625000
vt 0.125000 0.750000
vt 0.875000 0.625000
vt 0.875000 0.750000
vt 0.375000 0.000000
vt 0.625000 0.000000
vt 0.625000 0.125000
vt 0.375000 0.125000
s 0
f 31/29/11 32/30/11 28/31/11 27/32/11
f 27/32/12 28/31/12 26/33/12 25/34/12
f 29/35/13 31/29/13 27/32/13 25/36/13
f 32/30/14 30/37/14 26/38/14 28/31/14
f 25/39/15 26/40/15 30/41/15 29/42/15
l 34 36
l 35 33
l 36 35
l 34 33
o Cube.015
v -0.664126 1.901848 -0.413140
v -0.664126 1.389769 -0.413140
v -0.664126 1.901848 -0.417279
v -0.664126 1.389769 -0.417279
v 0.668892 1.901848 -0.413140
v 0.668892 1.389769 -0.413140
v 0.668892 1.901848 -0.417279
v 0.668892 1.389769 -0.417279
v 0.668892 1.901848 -0.413140
v 0.668892 1.389769 -0.413140
v 0.668892 1.901848 -0.417279
v 0.668892 1.389769 -0.417279
vn -0.0000 -0.0000 -1.0000
vn -1.0000 -0.0000 -0.0000
vn -0.0000 1.0000 -0.0000
vn -0.0000 -1.0000 -0.0000
vn -0.0000 -0.0000 1.0000
vt 0.375000 0.625000
vt 0.625000 0.625000
vt 0.625000 0.750000
vt 0.375000 0.750000
vt 0.625000 1.000000
vt 0.375000 1.000000
vt 0.125000 0.625000
vt 0.125000 0.750000
vt 0.875000 0.625000
vt 0.875000 0.750000
vt 0.375000 0.000000
vt 0.625000 0.000000
vt 0.625000 0.125000
vt 0.375000 0.125000
s 0
f 43/43/16 44/44/16 40/45/16 39/46/16
f 39/46/17 40/45/17 38/47/17 37/48/17
f 41/49/18 43/43/18 39/46/18 37/50/18
f 44/44/19 42/51/19 38/52/19 40/45/19
f 37/53/20 38/54/20 42/55/20 41/56/20
l 46 48
l 47 45
l 48 47
l 46 45
o Cube.016
v -0.715460 1.844642 0.539019
v -0.715460 1.389856 0.539019
v -0.719599 1.844642 0.539019
v -0.719599 1.389856 0.539019
v -0.715460 1.844642 -0.300824
v -0.715460 1.389856 -0.300824
v -0.719599 1.844642 -0.300824
v -0.719599 1.389856 -0.300824
v -0.715460 1.844642 -0.300824
v -0.715460 1.389856 -0.300824
v -0.719599 1.844642 -0.300824
v -0.719599 1.389856 -0.300824
vn -1.0000 -0.0000 -0.0000
vn -0.0000 -0.0000 1.0000
vn -0.0000 1.0000 -0.0000
vn -0.0000 -1.0000 -0.0000
vn 1.0000 -0.0000 -0.0000
vt 0.375000 0.625000
vt 0.625000 0.625000
vt 0.625000 0.750000
vt 0.375000 0.750000
vt 0.625000 1.000000
vt 0.375000 1.000000
vt 0.125000 0.625000
vt 0.125000 0.750000
vt 0.875000 0.625000
vt 0.875000 0.750000
vt 0.375000 0.000000
vt 0.625000 0.000000
vt 0.625000 0.125000
vt 0.375000 0.125000
s 0
f 55/57/21 56/58/21 52/59/21 51/60/21
f 51/60/22 52/59/22 50/61/22 49/62/22
f 53/63/23 55/57/23 51/60/23 49/64/23
f 56/58/24 54/65/24 50/66/24 52/59/24
f 49/67/25 50/68/25 54/69/25 53/70/25
l 58 60
l 59 57
l 60 59
l 58 57
o Cube.017
v -0.715460 1.844642 1.443118
v -0.715460 1.389856 1.443118
v -0.719599 1.844642 1.443118
v -0.719599 1.389856 1.443118
v -0.715460 1.844642 0.603275
v -0.715460 1.389856 0.603275
v -0.719599 1.844642 0.603275
v -0.719599 1.389856 0.603275
v -0.715460 1.844642 0.603275
v -0.715460 1.389856 0.603275
v -0.719599 1.844642 0.603275
v -0.719599 1.389856 0.603275
vn -1.0000 -0.0000 -0.0000
vn -0.0000 -0.0000 1.0000
vn -0.0000 1.0000 -0.0000
vn -0.0000 -1.0000 -0.0000
vn 1.0000 -0.0000 -0.0000
vt 0.375000 0.625000
vt 0.625000 0.625000
vt 0.625000 0.750000
vt 0.375000 0.750000
vt 0.625000 1.000000
vt 0.375000 1.000000
vt 0.125000 0.625000
vt 0.125000 0.750000
vt 0.875000 0.625000
vt 0.875000 0.750000
vt 0.375000 0.000000
vt 0.625000 0.000000
vt 0.625000 0.125000
vt 0.375000 0.125000
s 0
f 67/71/26 68/72/26 64/73/26 63/74/26
f 63/74/27 64/73/27 62/75/27 61/76/27
f 65/77/28 67/71/28 63/74/28 61/78/28
f 68/72/29 66/79/29 62/80/29 64/73/29
f 61/81/30 62/82/30 66/83/30 65/84/30
l 70 72
l 71 69
l 72 71
l 70 69
