# Blender 5.0.1
# www.blender.org
mtllib streetlamp_yellow.mtl
o Cube.002
v -0.612340 17.566771 -0.099258
v 0.612340 17.566771 -0.099258
v -0.612340 17.566771 -1.547448
v 0.612340 17.566771 -1.547448
v 0.400733 17.323296 -0.349484
v -0.400733 17.323296 -0.349484
v 0.400733 17.323296 -1.297222
v -0.400733 17.323296 -1.297222
vn 0.7548 -0.6560 -0.0000
vn -0.0000 -1.0000 -0.0000
vn -0.0000 -0.7167 0.6974
vn -0.7548 -0.6560 -0.0000
vn -0.0000 -0.7167 -0.6974
vt 0.375000 0.500000
vt 0.125000 0.500000
s 0
usemtl Material.003
f 4/1/1 2/1/1 5/1/1 7/1/1
f 5/1/2 6/2/2 8/2/2 7/1/2
f 2/1/3 1/2/3 6/2/3 5/1/3
f 1/2/4 3/2/4 8/2/4 6/2/4
f 3/2/5 4/1/5 7/1/5 8/2/5
