# Blender 5.0.1
# www.blender.org
mtllib leftwing_brown.mtl
o Cube
v 124.374748 0.200243 -112.235733
v 124.374748 -0.200708 -112.235733
v 121.075264 0.200243 -116.848297
v 121.075264 -0.200708 -116.848297
v 128.987305 0.200243 -115.535217
v 128.987305 -0.200708 -115.535217
v 125.687828 0.200243 -120.147781
v 125.687828 -0.200708 -120.147781
v 122.725006 0.200243 -114.542015
v 124.374748 -0.000232 -112.235733
v 122.725006 -0.200708 -114.542015
v 121.075264 -0.000232 -116.848297
v 123.381546 0.200243 -118.498039
v 123.381546 -0.200708 -118.498039
v 125.687828 -0.000232 -120.147781
v 127.337570 0.200243 -117.841499
v 127.337570 -0.200708 -117.841499
v 128.987305 -0.000232 -115.535217
v 126.681030 0.200243 -113.885475
v 126.681030 -0.200708 -113.885475
v 125.031288 -0.200708 -116.191757
v 125.031288 0.200243 -116.191757
v 126.681030 -0.000232 -113.885475
v 127.337570 -0.000232 -117.841499
v 123.381546 -0.000232 -118.498039
v 122.725006 -0.000232 -114.542015
v 123.549881 0.200243 -113.388878
v 124.374748 -0.100470 -112.235733
v 121.900139 -0.200708 -115.695152
v 121.075264 0.100006 -116.848297
v 122.228409 0.200243 -117.673164
v 124.534683 -0.200708 -119.322906
v 125.687828 0.100006 -120.147781
v 128.162445 -0.200708 -116.688362
v 128.987305 0.100006 -115.535217
v 127.834167 0.200243 -114.710350
v 125.527893 -0.200708 -113.060608
v 121.900139 0.200243 -115.695152
v 124.374748 0.100006 -112.235733
v 123.549881 -0.200708 -113.388878
v 121.075264 -0.100470 -116.848297
v 126.184425 0.200243 -117.016632
v 122.228409 -0.200708 -117.673164
v 125.687828 -0.100470 -120.147781
v 128.162445 0.200243 -116.688362
v 126.512695 -0.200708 -118.994637
v 128.987305 -0.100470 -115.535217
v 125.527893 0.200243 -113.060608
v 127.834167 -0.200708 -114.710350
v 125.856155 -0.200708 -115.038620
v 124.206421 -0.200708 -117.344894
v 126.184425 -0.200708 -117.016632
v 123.878151 -0.200708 -115.366882
v 125.856155 0.200243 -115.038620
v 124.206421 0.200243 -117.344894
v 123.878151 0.200243 -115.366882
v 126.184425 0.200243 -117.016632
v 125.527893 -0.000232 -113.060608
v 127.834167 -0.000232 -114.710350
v 126.681030 0.100006 -113.885475
v 126.681030 -0.100470 -113.885475
v 128.162445 -0.000232 -116.688362
v 126.512695 -0.000232 -118.994637
v 127.337570 0.100006 -117.841499
v 127.337570 -0.100470 -117.841499
v 124.534683 -0.000232 -119.322906
v 122.228409 -0.000232 -117.673164
v 123.381546 0.100006 -118.498039
v 123.381546 -0.100470 -118.498039
v 121.900139 -0.000232 -115.695152
v 123.549881 -0.000232 -113.388878
v 122.725006 0.100006 -114.542015
v 122.725006 -0.100470 -114.542015
v 123.549881 -0.100470 -113.388878
v 123.549881 0.100006 -113.388878
v 121.900139 0.100006 -115.695152
v 122.228409 -0.100470 -117.673164
v 122.228409 0.100006 -117.673164
v 124.534683 0.100006 -119.322906
v 126.512695 -0.100470 -118.994637
v 126.512695 0.100006 -118.994637
v 128.162445 0.100006 -116.688362
v 127.834167 -0.100470 -114.710350
v 127.834167 0.100006 -114.710350
v 125.527893 0.100006 -113.060608
v 124.206421 0.200243 -117.344894
v 123.053276 0.200243 -116.520027
v 124.703018 0.200243 -114.213745
v 123.053276 -0.200708 -116.520027
v 125.359558 -0.200708 -118.169769
v 127.009300 -0.200708 -115.863487
v 124.703018 -0.200708 -114.213745
v 127.009300 0.200243 -115.863487
v 125.527893 -0.100470 -113.060608
v 128.162445 -0.100470 -116.688362
v 124.534683 -0.100470 -119.322906
v 121.900139 -0.100470 -115.695152
v 122.228409 0.200243 -117.673164
v 121.075264 0.200243 -116.848297
v 121.900139 0.200243 -115.695152
v 123.053276 0.200243 -116.520027
v 122.228409 0.200243 -117.673164
v 121.075264 0.200243 -116.848297
v 121.900139 0.200243 -115.695152
v 123.053276 0.200243 -116.520027
v 122.228409 0.200243 -117.673164
v 121.075264 0.200243 -116.848297
v 121.900139 0.200243 -115.695152
v 123.053276 0.200243 -116.520027
v 122.228409 0.200243 -117.673164
v 121.075264 0.200243 -116.848297
v 121.900139 0.200243 -115.695152
v 123.053276 0.200243 -116.520027
v 127.834167 0.200243 -114.710350
v 128.987305 0.200243 -115.535217
v 128.162445 0.200243 -116.688362
v 127.009300 0.200243 -115.863487
v 124.534683 0.200243 -119.322906
v 126.512695 0.200243 -118.994637
v 125.359558 0.200243 -118.169769
v 125.687828 0.200243 -120.147781
v 124.534683 0.200243 -119.322906
v 126.512695 0.200243 -118.994637
v 125.359558 0.200243 -118.169769
v 124.328651 0.200243 -113.259628
v 124.503990 0.200243 -113.014503
v 124.749123 0.200243 -113.189850
v 124.573776 0.200243 -113.434975
v 122.099159 0.200243 -116.894394
v 121.854034 0.200243 -116.719055
v 122.029381 0.200243 -116.473923
v 122.274506 0.200243 -116.649269
v 127.963417 0.200243 -115.489120
v 128.208542 0.200243 -115.664459
v 128.033203 0.200243 -115.909592
v 127.788071 0.200243 -115.734245
v 125.558586 0.200243 -119.369011
v 125.313454 0.200243 -119.193665
v 125.733925 0.200243 -119.123886
v 125.488800 0.200243 -118.948540
v 124.328651 3.142983 -113.259628
v 124.503990 3.142983 -113.014503
v 124.749123 3.142983 -113.189850
v 124.573776 3.142983 -113.434975
v 122.099159 3.142983 -116.894394
v 121.854034 3.142983 -116.719055
v 122.029381 3.142983 -116.473923
v 122.274506 3.142983 -116.649269
v 127.963417 3.142983 -115.489120
v 128.208542 3.142983 -115.664459
v 128.033203 3.142983 -115.909592
v 127.788071 3.142983 -115.734245
v 125.558586 3.142983 -119.369011
v 125.313454 3.142983 -119.193665
v 125.733925 3.142983 -119.123886
v 125.488800 3.142983 -118.948540
v 123.958115 0.200243 -118.910477
v 125.607857 0.200243 -116.604195
v 124.782990 0.200243 -117.757332
v 127.257599 -0.200708 -114.297913
v 125.607857 0.200243 -116.604195
v 127.257599 -0.000232 -114.297913
v 123.958115 -0.200708 -118.910477
v 127.257599 0.200243 -114.297913
v 125.607857 -0.200708 -116.604195
v 123.958115 -0.000232 -118.910477
v 123.958115 0.100006 -118.910477
v 127.257599 -0.100470 -114.297913
v 127.257599 0.100006 -114.297913
v 124.782990 -0.200708 -117.757332
v 126.432732 -0.200708 -115.451050
v 126.432732 0.200243 -115.451050
v 123.958115 -0.100470 -118.910477
v 123.951996 0.166192 -118.914581
v 125.601738 0.166192 -116.608299
v 124.776863 0.166192 -117.761436
v 125.601738 0.166192 -116.608299
v 127.251480 0.166192 -114.302017
v 126.426605 0.166192 -115.455154
vn -0.8133 -0.0000 0.5818
vn -0.5818 -0.0000 -0.8133
vn 0.8133 -0.0000 -0.5818
vn 0.5818 -0.0000 0.8133
vn -0.0000 -1.0000 -0.0000
vn -0.0000 1.0000 -0.0000
vn 0.8110 -0.0759 -0.5801
vt 0.562500 0.187500
vt 0.625000 0.187500
vt 0.625000 0.250000
vt 0.562500 0.250000
vt 0.562500 0.437500
vt 0.625000 0.437500
vt 0.625000 0.500000
vt 0.562500 0.500000
vt 0.562500 0.687500
vt 0.625000 0.687500
vt 0.625000 0.750000
vt 0.562500 0.750000
vt 0.562500 0.937500
vt 0.625000 0.937500
vt 0.625000 1.000000
vt 0.562500 1.000000
vt 0.312500 0.687500
vt 0.375000 0.687500
vt 0.812500 0.687500
vt 0.875000 0.687500
vt 0.875000 0.750000
vt 0.812500 0.750000
vt 0.718750 0.687500
vt 0.750000 0.687500
vt 0.750000 0.750000
vt 0.718750 0.750000
vt 0.718750 0.562500
vt 0.750000 0.562500
vt 0.750000 0.625000
vt 0.718750 0.625000
vt 0.812500 0.562500
vt 0.875000 0.562500
vt 0.875000 0.625000
vt 0.812500 0.625000
vt 0.187500 0.687500
vt 0.250000 0.687500
vt 0.250000 0.750000
vt 0.187500 0.750000
vt 0.375000 0.500000
vt 0.312500 0.500000
vt 0.281250 0.500000
vt 0.250000 0.500000
vt 0.437500 0.375000
vt 0.437500 0.500000
vt 0.437500 0.937500
vt 0.500000 0.937500
vt 0.500000 1.000000
vt 0.437500 1.000000
vt 0.437500 0.843750
vt 0.500000 0.843750
vt 0.500000 0.875000
vt 0.437500 0.875000
vt 0.562500 0.843750
vt 0.625000 0.843750
vt 0.625000 0.875000
vt 0.562500 0.875000
vt 0.437500 0.687500
vt 0.500000 0.687500
vt 0.500000 0.750000
vt 0.437500 0.750000
vt 0.437500 0.562500
vt 0.500000 0.562500
vt 0.500000 0.625000
vt 0.437500 0.625000
vt 0.562500 0.562500
vt 0.625000 0.562500
vt 0.625000 0.625000
vt 0.562500 0.625000
vt 0.437500 0.437500
vt 0.500000 0.437500
vt 0.500000 0.500000
vt 0.437500 0.187500
vt 0.500000 0.187500
vt 0.500000 0.250000
vt 0.437500 0.250000
vt 0.437500 0.062500
vt 0.500000 0.062500
vt 0.500000 0.125000
vt 0.437500 0.125000
vt 0.562500 0.062500
vt 0.625000 0.062500
vt 0.625000 0.125000
vt 0.562500 0.125000
vt 0.500000 0.000000
vt 0.562500 0.000000
vt 0.625000 0.000000
vt 0.375000 0.062500
vt 0.375000 0.125000
vt 0.375000 0.000000
vt 0.437500 0.000000
vt 0.375000 0.187500
vt 0.375000 0.250000
vt 0.562500 0.312500
vt 0.500000 0.312500
vt 0.625000 0.312500
vt 0.437500 0.312500
vt 0.375000 0.312500
vt 0.250000 0.406250
vt 0.187500 0.312500
vt 0.375000 0.562500
vt 0.375000 0.625000
vt 0.437500 0.406250
vt 0.500000 0.406250
vt 0.375000 0.750000
vt 0.562500 0.812500
vt 0.500000 0.812500
vt 0.625000 0.812500
vt 0.375000 0.843750
vt 0.375000 0.875000
vt 0.437500 0.812500
vt 0.375000 0.812500
vt 0.375000 0.937500
vt 0.375000 1.000000
vt 0.187500 0.328125
vt 0.093750 0.156250
vt 0.125000 0.562500
vt 0.187500 0.562500
vt 0.187500 0.625000
vt 0.125000 0.625000
vt 0.125000 0.687500
vt 0.812500 0.500000
vt 0.875000 0.500000
vt 0.687500 0.562500
vt 0.687500 0.625000
vt 0.687500 0.500000
vt 0.718750 0.500000
vt 0.750000 0.500000
vt 0.687500 0.687500
vt 0.687500 0.750000
vt 0.281250 0.687500
vt 0.312500 0.750000
vt 0.281250 0.750000
vt 0.281250 0.625000
vt 0.312500 0.625000
vt 0.562500 0.406250
vt 0.625000 0.406250
vt 0.625000 0.375000
vt 0.562500 0.375000
vt 0.500000 0.375000
vt 0.250000 0.562500
vt 0.250000 0.625000
vt 0.187500 0.500000
vt 0.125000 0.750000
vt 0.125000 0.500000
vt 0.000000 0.000000
vt 0.125000 0.250000
s 0
usemtl Brown
f 97/1/1 41/4/1 4/3/1 29/2/1
f 96/5/2 44/8/2 8/7/2 32/6/2
f 95/9/3 47/12/3 6/11/3 34/10/3
f 94/13/4 28/16/4 2/15/4 37/14/4
f 93/17/5 117/17/5 116/18/5 45/18/5
f 92/19/5 37/22/5 2/21/5 40/20/5
f 171/23/5 160/26/5 20/25/5 50/24/5
f 170/27/5 165/30/5 21/29/5 51/28/5
f 89/31/5 53/34/5 11/33/5 29/32/5
f 88/35/6 48/38/6 19/37/6 54/36/6
f 7/39/2 33/44/2 68/43/2 13/42/2 157/41/2 118/40/2
f 85/45/4 39/48/4 10/47/4 58/46/4
f 169/49/4 60/52/4 23/51/4 162/50/4
f 168/53/4 61/56/4 20/55/4 160/54/4
f 82/57/3 35/60/3 18/59/3 62/58/3
f 81/61/3 64/64/3 24/63/3 63/62/3
f 80/65/3 65/68/3 17/67/3 46/66/3
f 79/69/2 33/44/2 15/71/2 66/70/2
f 76/72/1 30/75/1 12/74/1 70/73/1
f 75/76/1 72/79/1 26/78/1 71/77/1
f 74/80/1 73/83/1 11/82/1 40/81/1
f 71/77/1 26/78/1 73/83/1 74/80/1
f 10/84/1 71/77/1 74/80/1 28/85/1
f 28/85/1 74/80/1 40/81/1 2/86/1
f 27/87/1 9/88/1 72/79/1 75/76/1
f 1/89/1 27/87/1 75/76/1 39/90/1
f 39/90/1 75/76/1 71/77/1 10/84/1
f 38/91/1 3/92/1 30/75/1 76/72/1
f 9/88/1 38/91/1 76/72/1 72/79/1
f 72/79/1 76/72/1 70/73/1 26/78/1
f 12/74/2 67/94/2 77/93/2 41/4/2
f 41/4/2 77/93/2 43/95/2 4/3/2
f 3/92/2 31/97/2 78/96/2 30/75/2
f 30/75/2 78/96/2 67/94/2 12/74/2
f 120/98/5 124/98/5 122/40/5 118/40/5
f 42/99/6 16/101/6 119/100/6 120/98/6
f 167/102/2 79/69/2 66/70/2 166/103/2
f 63/62/3 24/63/3 65/68/3 80/65/3
f 15/71/3 63/62/3 80/65/3 44/8/3
f 44/8/3 80/65/3 46/66/3 8/7/3
f 7/39/3 119/100/3 16/101/3 64/64/3 33/44/3
f 33/44/3 81/61/3 63/62/3 15/71/3
f 45/18/3 5/104/3 35/60/3 82/57/3
f 16/101/3 45/18/3 82/57/3 64/64/3
f 64/64/3 82/57/3 62/58/3 24/63/3
f 162/50/4 23/51/4 61/56/4 168/53/4
f 18/59/4 59/106/4 83/105/4 47/12/4
f 47/12/4 83/105/4 49/107/4 6/11/4
f 164/108/4 19/109/4 60/52/4 169/49/4
f 5/104/4 36/111/4 84/110/4 35/60/4
f 35/60/4 84/110/4 59/106/4 18/59/4
f 48/112/4 1/113/4 39/48/4 85/45/4
f 19/109/4 48/112/4 85/45/4 60/52/4
f 60/52/4 85/45/4 58/46/4 23/51/4
f 159/114/6 120/98/6 118/40/6 157/41/6
f 158/115/6 42/99/6 120/98/6 159/114/6
f 38/116/6 9/119/6 56/118/6 87/117/6
f 87/117/5 101/117/5 100/116/5 38/116/5
f 116/18/6 135/18/6 134/104/6 115/104/6
f 9/119/6 27/120/6 88/35/6 56/118/6
f 43/121/5 89/31/5 29/32/5 4/122/5
f 46/66/5 17/67/5 52/124/5 90/123/5
f 8/7/5 46/66/5 90/123/5 32/125/5
f 163/126/5 170/27/5 51/28/5 14/127/5
f 34/10/5 6/11/5 49/129/5 91/128/5
f 17/67/5 34/10/5 91/128/5 52/124/5
f 165/30/5 171/23/5 50/24/5 21/29/5
f 50/24/5 20/25/5 37/22/5 92/19/5
f 53/34/5 92/19/5 40/20/5 11/33/5
f 172/130/6 164/132/6 36/131/6 93/17/6
f 161/133/6 172/130/6 93/17/6 57/134/6
f 57/134/6 93/17/6 45/18/6 16/101/6
f 58/46/4 10/47/4 28/16/4 94/13/4
f 23/51/4 58/46/4 94/13/4 61/56/4
f 61/56/4 94/13/4 37/14/4 20/55/4
f 62/58/3 18/59/3 47/12/3 95/9/3
f 24/63/3 62/58/3 95/9/3 65/68/3
f 65/68/3 95/9/3 34/10/3 17/67/3
f 66/70/2 15/71/2 44/8/2 96/5/2
f 166/103/2 66/70/2 96/5/2 173/135/2
f 173/135/2 96/5/2 32/6/2 163/136/2
f 70/73/1 12/74/1 41/4/1 97/1/1
f 26/78/1 70/73/1 97/1/1 73/83/1
f 73/83/1 97/1/1 29/2/1 11/82/1
f 21/29/1 50/24/1 54/36/1 22/141/1 55/140/1 13/42/1 68/43/1 25/139/1 69/138/1 14/137/1 51/28/1
f 54/36/2 50/24/2 92/19/2 88/35/2
f 77/93/3 67/94/3 78/96/3 31/142/3 87/117/3 56/118/3 88/35/3 92/19/3 53/34/3 89/31/3 43/95/3
f 98/142/5 102/142/5 105/117/5 101/117/5
f 38/91/5 100/91/5 99/92/5 3/92/5
f 31/142/5 98/142/5 101/117/5 87/117/5
f 3/92/5 99/92/5 98/97/5 31/97/5
f 105/117/5 109/117/5 108/116/5 104/116/5
f 99/92/5 103/92/5 102/97/5 98/97/5
f 101/117/5 105/117/5 104/116/5 100/116/5
f 100/91/5 104/91/5 103/92/5 99/92/5
f 106/142/5 110/142/5 113/117/5 109/117/5
f 104/91/5 108/91/5 107/92/5 103/92/5
f 102/142/5 106/142/5 109/117/5 105/117/5
f 103/92/5 107/92/5 106/97/5 102/97/5
f 88/35/6 128/35/6 127/38/6 48/38/6
f 107/92/5 111/92/5 110/97/5 106/97/5
f 109/117/5 113/117/5 112/116/5 108/116/5
f 108/91/5 112/91/5 111/92/5 107/92/5
f 112/91/6 131/91/6 130/92/6 111/92/6
f 5/104/5 115/104/5 114/111/5 36/111/5
f 45/18/5 116/18/5 115/104/5 5/104/5
f 36/131/5 114/131/5 117/17/5 93/17/5
f 123/100/6 139/100/6 140/98/6 124/98/6
f 118/40/5 122/40/5 121/39/5 7/39/5
f 7/39/5 121/39/5 123/100/5 119/100/5
f 119/100/5 123/100/5 124/98/5 120/98/5
f 125/120/2 141/120/2 144/35/2 128/35/2
f 133/131/1 149/131/1 152/17/1 136/17/1
f 128/35/3 144/35/3 143/38/3 127/38/3
f 135/18/3 151/18/3 150/104/3 134/104/3
f 124/98/6 140/98/6 138/40/6 122/40/6
f 110/142/6 129/142/6 132/117/6 113/117/6
f 114/131/6 133/131/6 136/17/6 117/17/6
f 113/117/6 132/117/6 131/116/6 112/116/6
f 27/120/6 125/120/6 128/35/6 88/35/6
f 117/17/6 136/17/6 135/18/6 116/18/6
f 48/112/6 127/112/6 126/113/6 1/113/6
f 122/40/6 138/40/6 137/39/6 121/39/6
f 1/89/6 126/89/6 125/87/6 27/87/6
f 121/39/6 137/39/6 139/100/6 123/100/6
f 111/92/6 130/92/6 129/97/6 110/97/6
f 115/104/6 134/104/6 133/111/6 114/111/6
f 141/120/6 142/143/6 143/38/6 144/35/6
f 146/144/6 147/116/6 148/117/6 145/142/6
f 152/17/6 149/131/6 150/104/6 151/18/6
f 156/98/6 155/100/6 153/39/6 154/40/6
f 136/17/2 152/17/2 151/18/2 135/18/2
f 130/92/2 146/92/2 145/97/2 129/97/2
f 138/40/2 154/40/2 153/39/2 137/39/2
f 131/91/1 147/91/1 146/92/1 130/92/1
f 137/39/3 153/39/3 155/100/3 139/100/3
f 129/142/3 145/142/3 148/117/3 132/117/3
f 139/100/4 155/100/4 156/98/4 140/98/4
f 132/117/4 148/117/4 147/116/4 131/116/4
f 126/89/1 142/89/1 141/87/1 125/87/1
f 140/98/1 156/98/1 154/40/1 138/40/1
f 134/104/4 150/104/4 149/111/4 133/111/4
f 127/112/4 143/112/4 142/113/4 126/113/4
f 22/145/6 158/115/6 159/114/6 86/146/6
f 86/146/6 159/114/6 157/41/6 13/42/6
f 69/138/2 173/135/2 163/136/2 14/137/2
f 25/139/2 166/103/2 173/135/2 69/138/2
f 22/141/6 54/36/6 172/130/6 161/133/6
f 54/36/6 19/37/6 164/132/6 172/130/6
f 52/124/5 91/128/5 171/23/5 165/30/5
f 32/125/5 90/123/5 170/27/5 163/126/5
f 36/111/4 164/108/4 169/49/4 84/110/4
f 59/106/4 162/50/4 168/53/4 83/105/4
f 68/43/2 167/102/2 166/103/2 25/139/2
f 83/105/4 168/53/4 160/54/4 49/107/4
f 84/110/4 169/49/4 162/50/4 59/106/4
f 90/123/5 52/124/5 165/30/5 170/27/5
f 91/128/5 49/129/5 160/26/5 171/23/5
f 158/115/7 175/115/7 176/114/7 159/114/7
f 172/130/7 179/130/7 177/133/7 161/133/7
f 159/114/7 176/114/7 174/41/7 157/41/7
f 164/132/7 178/132/7 179/130/7 172/130/7
o Plane.001
v 124.342422 2.782367 -111.416061
v 129.828644 2.782367 -115.340492
v 120.417984 2.782367 -116.902275
v 125.904205 2.782367 -120.826706
v 122.380203 2.782367 -114.159164
v 127.085533 2.782367 -113.378273
v 127.866425 2.782367 -118.083603
v 123.161095 2.782367 -118.864494
v 125.123314 5.459509 -116.121384
v 126.494865 4.120938 -117.102493
v 124.732864 4.120938 -113.768723
v 124.361336 2.576492 -111.530052
v 129.714645 2.576492 -115.359406
v 120.531982 2.576492 -116.883362
v 125.885292 2.576492 -120.712715
v 122.499588 2.597453 -114.244560
v 127.000137 2.597453 -113.497658
v 127.747040 2.597453 -117.998207
v 123.246490 2.597453 -118.745110
v 125.123314 5.223422 -116.121384
v 126.375488 3.936024 -117.017097
v 124.751785 3.915063 -113.882713
vn 0.5057 0.7832 -0.3617
vn -0.3617 0.7832 -0.5057
vn 0.3617 0.7832 0.5057
vn -0.5057 0.7832 0.3617
vn -0.5225 -0.7754 0.3546
vn 0.3611 -0.7755 0.5178
vn -0.3685 -0.7776 -0.5095
vn -0.5043 -0.7754 0.3799
vn 0.5091 -0.7755 -0.3734
vn -0.3611 -0.7755 -0.5178
vn 0.3734 -0.7755 0.5091
vn 0.5133 -0.7776 -0.3631
vn -0.7087 -0.5032 0.4946
vn 0.4946 -0.5032 0.7087
vn 0.7087 -0.5032 -0.4946
vn -0.4946 -0.5032 -0.7087
vn -0.6970 -0.5032 0.5109
vn 0.5109 -0.5032 0.6970
vn 0.6970 -0.5032 -0.5109
vn -0.5109 -0.5032 -0.6970
vt 0.500000 0.500000
vt 0.750000 0.500000
vt 1.000000 0.500000
vt 1.000000 1.000000
vt 0.500000 1.000000
vt 0.000000 1.000000
vt 0.000000 0.000000
vt 0.500000 0.000000
vt 0.250000 0.250000
vt 1.000000 0.000000
vt 0.000000 0.500000
s 0
usemtl Brown
f 188/147/8 189/148/8 186/149/8 183/150/8
f 188/147/9 187/151/9 182/152/9
f 180/153/10 185/154/10 188/147/10 190/155/10
f 181/156/8 186/149/8 189/148/8 188/147/8
f 184/157/11 188/147/11 182/152/11
f 185/154/10 181/156/10 188/147/10
f 187/151/9 188/147/9 183/150/9
f 184/157/11 180/153/11 190/155/11 188/147/11
f 199/147/12 194/150/12 197/149/12 200/148/12
f 199/147/13 193/152/13 198/151/13
f 191/153/14 201/155/14 199/147/14 196/154/14
f 192/156/15 199/147/15 200/148/15 197/149/15
f 195/157/16 193/152/16 199/147/16
f 196/154/17 199/147/17 192/156/17
f 198/151/18 194/150/18 199/147/18
f 195/157/19 199/147/19 201/155/19 191/153/19
f 180/153/20 184/157/20 195/157/20 191/153/20
f 181/156/21 185/154/21 196/154/21 192/156/21
f 183/150/22 186/149/22 197/149/22 194/150/22
f 182/152/23 187/151/23 198/151/23 193/152/23
f 184/157/24 182/152/24 193/152/24 195/157/24
f 185/154/25 180/153/25 191/153/25 196/154/25
f 186/149/26 181/156/26 192/156/26 197/149/26
f 187/151/27 183/150/27 194/150/27 198/151/27
