# Blender 5.0.1
# www.blender.org
mtllib leftwing_yellow.mtl
o 3MF_Object.060
v -131.118668 11.993268 -107.813286
v -131.118668 14.079045 -107.813286
v -131.259415 14.079045 -107.639343
vn -0.7774 -0.0000 -0.6290
vt 0.803711 0.125488
vt 0.804688 0.126465
vt 0.803711 0.126465
s 0
usemtl Yellow
f 1/1/1 3/2/1 2/3/1
o 3MF_Object.135
v 128.557724 6.621217 -90.471848
v 118.510712 6.621217 -103.227623
v 133.950455 6.621217 -115.388641
v 143.997467 6.621217 -102.632866
v 128.557724 -0.557631 -90.471848
v 118.510712 -0.557631 -103.227623
v 133.950455 -0.557631 -115.388641
v 143.997467 -0.557631 -102.632866
vn -0.7856 -0.0000 0.6188
vn -0.0000 -1.0000 -0.0000
vn 0.6188 -0.0000 0.7856
vn -0.6188 -0.0000 -0.7856
vn 0.7856 -0.0000 -0.6188
vn -0.0000 1.0000 -0.0000
vt 0.625000 0.000000
vt 0.625000 0.250000
vt 0.625000 1.000000
vt 0.625000 0.500000
vt 0.625000 0.750000
s 0
usemtl Yellow.001
f 4/4/2 5/5/2 9/5/2 8/4/2
f 8/6/3 9/5/3 10/7/3 11/8/3
f 7/8/4 4/6/4 8/6/4 11/8/4
f 5/5/5 6/7/5 10/7/5 9/5/5
f 6/7/6 7/8/6 11/8/6 10/7/6
f 4/6/7 7/8/7 6/7/7 5/5/7
o Cube.010
v 12.150646 -0.090980 -34.339100
v 110.905731 -0.090980 -109.858444
v 19.944508 -0.090980 -1.990658
v 130.986633 -0.090980 -83.599045
v 12.150646 8.673090 -34.339100
v 110.905731 8.673090 -109.858444
v 130.986633 8.673090 -83.599045
v 19.944508 8.673090 -1.990658
vn -0.9722 -0.0000 0.2342
vn 0.5922 -0.0000 0.8058
vn 0.7944 -0.0000 -0.6075
vn -0.6075 -0.0000 -0.7944
vt 0.375000 0.750000
vt 0.500000 0.750000
vt 0.500000 1.000000
vt 0.375000 1.000000
vt 0.375000 0.500000
vt 0.500000 0.500000
vt 0.375000 0.250000
vt 0.500000 0.250000
vt 0.375000 0.000000
vt 0.500000 0.000000
s 0
usemtl Material.004
f 14/9/8 19/10/8 16/11/8 12/12/8
f 15/13/9 18/14/9 19/10/9 14/9/9
f 13/15/10 17/16/10 18/14/10 15/13/10
f 12/17/11 16/18/11 17/16/11 13/15/11
