# Blender 5.0.1
# www.blender.org
mtllib leftwing_palegrey.mtl
o Cube.001
v 121.992409 -0.905834 -115.985321
v 121.992409 -0.742894 -115.985321
v 121.388451 -0.905834 -116.829636
v 121.388451 -0.742894 -116.829636
v 122.836723 -0.905834 -116.589279
v 122.836723 -0.742894 -116.589279
v 122.232765 -0.905834 -117.433594
v 122.232765 -0.742894 -117.433594
v 122.055641 -0.742894 -116.366287
v 121.769417 -0.742894 -116.766426
v 122.169556 -0.742894 -117.052650
v 122.455780 -0.742894 -116.652519
v 122.055641 -0.157468 -116.366287
v 121.769417 -0.157468 -116.766426
v 122.169556 -0.157468 -117.052650
v 122.455780 -0.157468 -116.652519
vn -0.8133 -0.0000 0.5818
vn -0.5818 -0.0000 -0.8133
vn 0.8133 -0.0000 -0.5818
vn 0.5818 -0.0000 0.8133
vn -0.0000 -1.0000 -0.0000
vn -0.0000 1.0000 -0.0000
vt 0.375000 0.000000
vt 0.625000 0.000000
vt 0.625000 0.250000
vt 0.375000 0.250000
vt 0.625000 0.500000
vt 0.375000 0.500000
vt 0.625000 0.750000
vt 0.375000 0.750000
vt 0.625000 1.000000
vt 0.375000 1.000000
vt 0.125000 0.500000
vt 0.125000 0.750000
vt 0.875000 0.500000
vt 0.875000 0.750000
s 0
usemtl Pale_Grey
f 1/1/1 2/2/1 4/3/1 3/4/1
f 3/4/2 4/3/2 8/5/2 7/6/2
f 7/6/3 8/5/3 6/7/3 5/8/3
f 5/8/4 6/7/4 2/9/4 1/10/4
f 3/11/5 7/6/5 5/8/5 1/12/5
f 6/7/6 8/5/6 11/5/6 12/7/6
f 9/9/4 12/7/4 16/7/4 13/9/4
f 4/3/6 2/2/6 9/2/6 10/3/6
f 2/9/6 6/7/6 12/7/6 9/9/6
f 8/5/6 4/3/6 10/3/6 11/5/6
f 15/5/6 14/13/6 13/14/6 16/7/6
f 11/5/2 10/3/2 14/3/2 15/5/2
f 12/7/3 11/5/3 15/5/3 16/7/3
f 10/3/1 9/2/1 13/2/1 14/3/1
o Cube.002
v 124.458885 -0.913818 -112.537277
v 124.458885 -0.750877 -112.537277
v 123.854927 -0.913818 -113.381592
v 123.854927 -0.750877 -113.381592
v 125.303200 -0.913818 -113.141235
v 125.303200 -0.750877 -113.141235
v 124.699242 -0.913818 -113.985550
v 124.699242 -0.750877 -113.985550
v 124.522118 -0.750877 -112.918243
v 124.235893 -0.750877 -113.318382
v 124.636032 -0.750877 -113.604607
v 124.922256 -0.750877 -113.204475
v 124.522118 -0.165452 -112.918243
v 124.235893 -0.165452 -113.318382
v 124.636032 -0.165452 -113.604607
v 124.922256 -0.165452 -113.204475
vn -0.8133 -0.0000 0.5818
vn -0.5818 -0.0000 -0.8133
vn 0.8133 -0.0000 -0.5818
vn 0.5818 -0.0000 0.8133
vn -0.0000 -1.0000 -0.0000
vn -0.0000 1.0000 -0.0000
vt 0.375000 0.000000
vt 0.625000 0.000000
vt 0.625000 0.250000
vt 0.375000 0.250000
vt 0.625000 0.500000
vt 0.375000 0.500000
vt 0.625000 0.750000
vt 0.375000 0.750000
vt 0.625000 1.000000
vt 0.375000 1.000000
vt 0.125000 0.500000
vt 0.125000 0.750000
vt 0.875000 0.500000
vt 0.875000 0.750000
s 0
usemtl Pale_Grey
f 17/15/7 18/16/7 20/17/7 19/18/7
f 19/18/8 20/17/8 24/19/8 23/20/8
f 23/20/9 24/19/9 22/21/9 21/22/9
f 21/22/10 22/21/10 18/23/10 17/24/10
f 19/25/11 23/20/11 21/22/11 17/26/11
f 22/21/12 24/19/12 27/19/12 28/21/12
f 25/23/10 28/21/10 32/21/10 29/23/10
f 20/17/12 18/16/12 25/16/12 26/17/12
f 18/23/12 22/21/12 28/21/12 25/23/12
f 24/19/12 20/17/12 26/17/12 27/19/12
f 31/19/12 30/27/12 29/28/12 32/21/12
f 27/19/8 26/17/8 30/17/8 31/19/8
f 28/21/9 27/19/9 31/19/9 32/21/9
f 26/17/7 25/16/7 29/16/7 30/17/7
o Cube.003
v 125.460121 -0.905834 -118.465866
v 125.460121 -0.742894 -118.465866
v 124.856163 -0.905834 -119.310181
v 124.856163 -0.742894 -119.310181
v 126.304436 -0.905834 -119.069824
v 126.304436 -0.742894 -119.069824
v 125.700478 -0.905834 -119.914139
v 125.700478 -0.742894 -119.914139
v 125.523354 -0.742894 -118.846832
v 125.237129 -0.742894 -119.246971
v 125.637268 -0.742894 -119.533195
v 125.923492 -0.742894 -119.133064
v 125.523354 -0.157468 -118.846832
v 125.237129 -0.157468 -119.246971
v 125.637268 -0.157468 -119.533195
v 125.923492 -0.157468 -119.133064
vn -0.8133 -0.0000 0.5818
vn -0.5818 -0.0000 -0.8133
vn 0.8133 -0.0000 -0.5818
vn 0.5818 -0.0000 0.8133
vn -0.0000 -1.0000 -0.0000
vn -0.0000 1.0000 -0.0000
vt 0.375000 0.000000
vt 0.625000 0.000000
vt 0.625000 0.250000
vt 0.375000 0.250000
vt 0.625000 0.500000
vt 0.375000 0.500000
vt 0.625000 0.750000
vt 0.375000 0.750000
vt 0.625000 1.000000
vt 0.375000 1.000000
vt 0.125000 0.500000
vt 0.125000 0.750000
vt 0.875000 0.500000
vt 0.875000 0.750000
s 0
usemtl Pale_Grey
f 33/29/13 34/30/13 36/31/13 35/32/13
f 35/32/14 36/31/14 40/33/14 39/34/14
f 39/34/15 40/33/15 38/35/15 37/36/15
f 37/36/16 38/35/16 34/37/16 33/38/16
f 35/39/17 39/34/17 37/36/17 33/40/17
f 38/35/18 40/33/18 43/33/18 44/35/18
f 41/37/16 44/35/16 48/35/16 45/37/16
f 36/31/18 34/30/18 41/30/18 42/31/18
f 34/37/18 38/35/18 44/35/18 41/37/18
f 40/33/18 36/31/18 42/31/18 43/33/18
f 47/33/18 46/41/18 45/42/18 48/35/18
f 43/33/14 42/31/14 46/31/14 47/33/14
f 44/35/15 43/33/15 47/33/15 48/35/15
f 42/31/13 41/30/13 45/30/13 46/31/13
o Cube.004
v 127.926605 -0.913818 -115.017822
v 127.926605 -0.750877 -115.017822
v 127.322647 -0.913818 -115.862137
v 127.322647 -0.750877 -115.862137
v 128.770920 -0.913818 -115.621780
v 128.770920 -0.750877 -115.621780
v 128.166962 -0.913818 -116.466095
v 128.166962 -0.750877 -116.466095
v 127.989838 -0.750877 -115.398788
v 127.703613 -0.750877 -115.798927
v 128.103745 -0.750877 -116.085152
v 128.389984 -0.750877 -115.685020
v 127.989838 -0.165452 -115.398788
v 127.703613 -0.165452 -115.798927
v 128.103745 -0.165452 -116.085152
v 128.389984 -0.165452 -115.685020
vn -0.8133 -0.0000 0.5818
vn -0.5818 -0.0000 -0.8133
vn 0.8133 -0.0000 -0.5818
vn 0.5818 -0.0000 0.8133
vn -0.0000 -1.0000 -0.0000
vn -0.0000 1.0000 -0.0000
vt 0.375000 0.000000
vt 0.625000 0.000000
vt 0.625000 0.250000
vt 0.375000 0.250000
vt 0.625000 0.500000
vt 0.375000 0.500000
vt 0.625000 0.750000
vt 0.375000 0.750000
vt 0.625000 1.000000
vt 0.375000 1.000000
vt 0.125000 0.500000
vt 0.125000 0.750000
vt 0.875000 0.500000
vt 0.875000 0.750000
s 0
usemtl Pale_Grey
f 49/43/19 50/44/19 52/45/19 51/46/19
f 51/46/20 52/45/20 56/47/20 55/48/20
f 55/48/21 56/47/21 54/49/21 53/50/21
f 53/50/22 54/49/22 50/51/22 49/52/22
f 51/53/23 55/48/23 53/50/23 49/54/23
f 54/49/24 56/47/24 59/47/24 60/49/24
f 57/51/22 60/49/22 64/49/22 61/51/22
f 52/45/24 50/44/24 57/44/24 58/45/24
f 50/51/24 54/49/24 60/49/24 57/51/24
f 56/47/24 52/45/24 58/45/24 59/47/24
f 63/47/24 62/55/24 61/56/24 64/49/24
f 59/47/20 58/45/20 62/45/20 63/47/20
f 60/49/21 59/47/21 63/47/21 64/49/21
f 58/45/19 57/44/19 61/44/19 62/45/19
