# Blender 5.0.1
# www.blender.org
mtllib rightwing_grey.mtl
o Cube.009
v -14.024128 17.437159 -32.068916
v -14.024128 -0.090981 -32.068916
v -95.134033 17.437164 -126.286331
v -95.134033 -0.090974 -126.286331
v -28.305073 17.437153 -2.015289
v -28.305073 -0.090985 -2.015289
v -120.186844 17.437160 -104.718864
v -120.186844 -0.090979 -104.718864
v -14.024128 8.781510 -32.068916
v -95.134033 8.781517 -126.286331
v -120.186844 8.781512 -104.718864
v -28.305073 8.781506 -2.015289
vn -0.0000 1.0000 -0.0000
vn -0.0000 -1.0000 -0.0000
vn 0.9032 -0.0000 0.4292
vn -0.7453 -0.0000 0.6668
vn -0.6524 -0.0000 -0.7579
vn 0.7579 -0.0000 -0.6524
vt 0.125000 0.500000
vt 0.375000 0.500000
vt 0.375000 0.750000
vt 0.125000 0.750000
vt 0.625000 0.500000
vt 0.875000 0.500000
vt 0.875000 0.750000
vt 0.625000 0.750000
vt 0.498454 0.750000
vt 0.498454 1.000000
vt 0.375000 1.000000
vt 0.498454 0.500000
vt 0.375000 0.250000
vt 0.498454 0.250000
vt 0.375000 0.000000
vt 0.498454 0.000000
s 0
usemtl BaseColor.002
f 3/1/1 7/2/1 5/3/1 1/4/1
f 8/5/2 4/6/2 2/7/2 6/8/2
f 5/3/3 12/9/3 9/10/3 1/11/3
f 7/2/4 11/12/4 12/9/4 5/3/4
f 3/13/5 10/14/5 11/12/5 7/2/5
f 1/15/6 9/16/6 10/14/6 3/13/6
