# Blender 5.0.1
# www.blender.org
mtllib roundabout_grey.mtl
o Cube
v -10.058579 0.012470 9.982258
v -9.555840 0.992211 9.483333
v -10.058579 0.012470 -9.982258
v -9.555840 0.992211 -9.483333
v 10.058579 0.012470 9.982258
v 9.555840 0.992211 9.483333
v 10.058579 0.012470 -9.982258
v 9.555840 0.992211 -9.483333
v -9.555840 0.858479 9.483333
v -9.555840 0.858479 -9.483333
v 9.555840 0.858479 -9.483333
v 9.555840 0.858479 9.483333
vn -0.8897 0.4565 -0.0000
vn -0.0000 0.4538 -0.8911
vn 0.8897 0.4565 -0.0000
vn -0.0000 0.4538 0.8911
vn -0.0000 -1.0000 -0.0000
vn -0.0000 -0.0000 1.0000
vn -0.0000 1.0000 -0.0000
vn -1.0000 -0.0000 -0.0000
vn 1.0000 -0.0000 -0.0000
vn -0.0000 -0.0000 -1.0000
vt 0.375000 0.000000
vt 0.625000 0.000000
vt 0.625000 0.250000
vt 0.375000 0.250000
vt 0.625000 0.500000
vt 0.375000 0.500000
vt 0.625000 0.750000
vt 0.375000 0.750000
vt 0.625000 1.000000
vt 0.375000 1.000000
vt 0.125000 0.500000
vt 0.125000 0.750000
vt 0.875000 0.500000
vt 0.875000 0.750000
s 0
usemtl stone
f 1/1/1 2/2/1 4/3/1 3/4/1
f 3/4/2 4/3/2 8/5/2 7/6/2
f 7/6/3 8/5/3 6/7/3 5/8/3
f 5/8/4 6/7/4 2/9/4 1/10/4
f 3/11/5 7/6/5 5/8/5 1/12/5
f 8/5/6 4/3/6 10/3/6 11/5/6
f 6/7/8 8/5/8 11/5/8 12/7/8
f 4/3/9 2/2/9 9/2/9 10/3/9
f 2/9/10 6/7/10 12/7/10 9/9/10
usemtl 
f 11/5/7 10/13/7 9/14/7 12/7/7
o Cube.003
v -0.612340 18.211716 -0.431985
v -0.612340 18.868202 -0.431985
v -0.612340 18.211716 -1.078072
v -0.612340 18.868202 -1.078072
v 0.612340 18.211716 -0.431985
v 0.612340 18.868202 -0.431985
v 0.612340 18.211716 -1.078072
v 0.612340 18.868202 -1.078072
v -0.612340 18.868202 -2.526263
v -0.612340 18.211716 -2.526263
v 0.612340 18.211716 -2.526263
v 0.612340 18.868202 -2.526263
v 0.612340 18.211716 -1.078072
v -0.612340 18.211716 -1.078072
v 0.612340 18.211716 -2.526263
v -0.612340 18.211716 -2.526263
v 0.612340 18.211716 -1.078072
v -0.612340 18.211716 -1.078072
v 0.612340 18.211716 -2.526263
v -0.612340 18.211716 -2.526263
vn -1.0000 -0.0000 -0.0000
vn 1.0000 -0.0000 -0.0000
vn -0.0000 -0.0000 1.0000
vn -0.0000 -1.0000 -0.0000
vn -0.0000 1.0000 -0.0000
vn -0.0000 -0.0000 -1.0000
vt 0.375000 0.000000
vt 0.625000 0.000000
vt 0.625000 0.250000
vt 0.375000 0.250000
vt 0.625000 0.500000
vt 0.375000 0.500000
vt 0.625000 0.750000
vt 0.375000 0.750000
vt 0.625000 1.000000
vt 0.375000 1.000000
vt 0.125000 0.500000
vt 0.125000 0.750000
vt 0.875000 0.500000
vt 0.875000 0.750000
s 0
usemtl Material.003
f 13/15/11 14/16/11 16/17/11 26/18/11
f 20/19/12 25/20/12 27/20/12 24/19/12
f 25/20/12 20/19/12 18/21/12 17/22/12
f 17/22/13 18/21/13 14/23/13 13/24/13
f 26/25/14 25/20/14 17/22/14 13/26/14
f 20/19/15 16/27/15 14/28/15 18/21/15
f 28/18/16 21/17/16 24/19/16 27/20/16
f 16/27/15 20/19/15 24/19/15 21/27/15
f 26/18/11 16/17/11 21/17/11 28/18/11
f 30/25/15 29/20/15 25/20/15 26/25/15
f 31/20/15 32/25/15 28/25/15 27/20/15
f 29/20/15 31/20/15 27/20/15 25/20/15
f 32/25/15 30/25/15 26/25/15 28/25/15
f 15/25/15 19/20/15 29/20/15 30/25/15
f 23/20/15 22/25/15 32/25/15 31/20/15
f 19/20/15 23/20/15 31/20/15 29/20/15
f 22/25/15 15/25/15 30/25/15 32/25/15
o Cube.004
v 0.206688 18.425550 -0.166463
v 0.206688 0.848752 -0.166463
v 0.206688 18.425550 0.244839
v 0.206688 0.848752 0.244839
v -0.206688 18.425550 -0.166463
v -0.206688 0.848752 -0.166463
v -0.206688 18.425550 0.244839
v -0.206688 0.848752 0.244839
vn -0.0000 1.0000 -0.0000
vn -0.0000 -0.0000 1.0000
vn -1.0000 -0.0000 -0.0000
vn -0.0000 -1.0000 -0.0000
vn 1.0000 -0.0000 -0.0000
vn -0.0000 -0.0000 -1.0000
vt 0.625000 0.500000
vt 0.875000 0.500000
vt 0.875000 0.750000
vt 0.625000 0.750000
vt 0.375000 0.750000
vt 0.625000 1.000000
vt 0.375000 1.000000
vt 0.375000 0.000000
vt 0.625000 0.000000
vt 0.625000 0.250000
vt 0.375000 0.250000
vt 0.125000 0.500000
vt 0.375000 0.500000
vt 0.125000 0.750000
s 0
usemtl Material.003
f 33/29/17 37/30/17 39/31/17 35/32/17
f 36/33/18 35/32/18 39/34/18 40/35/18
f 40/36/19 39/37/19 37/38/19 38/39/19
f 38/40/20 34/41/20 36/33/20 40/42/20
f 34/41/21 33/29/21 35/32/21 36/33/21
f 38/39/22 37/38/22 33/29/22 34/41/22
o Cube.011
v -0.500444 18.423742 0.571618
v -0.500444 18.875425 0.571618
v -0.500444 18.423742 -0.496500
v -0.500444 18.875425 -0.496500
v 0.500444 18.423742 0.571618
v 0.500444 18.875425 0.571618
v 0.500444 18.423742 -0.496500
v 0.500444 18.875425 -0.496500
vn -1.0000 -0.0000 -0.0000
vn -0.0000 -0.0000 -1.0000
vn 1.0000 -0.0000 -0.0000
vn -0.0000 -0.0000 1.0000
vn -0.0000 -1.0000 -0.0000
vn -0.0000 1.0000 -0.0000
vt 0.375000 0.000000
vt 0.625000 0.000000
vt 0.625000 0.250000
vt 0.375000 0.250000
vt 0.625000 0.500000
vt 0.375000 0.500000
vt 0.625000 0.750000
vt 0.375000 0.750000
vt 0.625000 1.000000
vt 0.375000 1.000000
vt 0.125000 0.500000
vt 0.125000 0.750000
vt 0.875000 0.500000
vt 0.875000 0.750000
s 0
usemtl Material.015
f 41/43/23 42/44/23 44/45/23 43/46/23
f 43/46/24 44/45/24 48/47/24 47/48/24
f 47/48/25 48/47/25 46/49/25 45/50/25
f 45/50/26 46/49/26 42/51/26 41/52/26
f 43/53/27 47/48/27 45/50/27 41/54/27
f 48/47/28 44/55/28 42/56/28 46/49/28
o Cube.012
v 0.495537 18.177105 -0.598494
v 0.495537 18.833591 -0.598494
v 1.141625 18.177105 -0.598494
v 1.141625 18.833591 -0.598494
v 0.495537 18.177105 0.626186
v 0.495537 18.833591 0.626186
v 1.141625 18.177105 0.626186
v 1.141625 18.833591 0.626186
v 2.589815 18.833591 -0.598494
v 2.589815 18.177105 -0.598494
v 2.589815 18.177105 0.626186
v 2.589815 18.833591 0.626186
v 1.141625 18.177105 0.626186
v 1.141625 18.177105 -0.598494
v 2.589815 18.177105 0.626186
v 2.589815 18.177105 -0.598494
v 1.141625 18.177105 0.626186
v 1.141625 18.177105 -0.598494
v 2.589815 18.177105 0.626186
v 2.589815 18.177105 -0.598494
vn -0.0000 -0.0000 -1.0000
vn -0.0000 -0.0000 1.0000
vn -1.0000 -0.0000 -0.0000
vn -0.0000 -1.0000 -0.0000
vn -0.0000 1.0000 -0.0000
vn 1.0000 -0.0000 -0.0000
vt 0.375000 0.000000
vt 0.625000 0.000000
vt 0.625000 0.250000
vt 0.375000 0.250000
vt 0.625000 0.500000
vt 0.375000 0.500000
vt 0.625000 0.750000
vt 0.375000 0.750000
vt 0.625000 1.000000
vt 0.375000 1.000000
vt 0.125000 0.500000
vt 0.125000 0.750000
vt 0.875000 0.500000
vt 0.875000 0.750000
s 0
usemtl Material.011
f 49/57/29 50/58/29 52/59/29 62/60/29
f 56/61/30 61/62/30 63/62/30 60/61/30
f 61/62/30 56/61/30 54/63/30 53/64/30
f 53/64/31 54/63/31 50/65/31 49/66/31
f 62/67/32 61/62/32 53/64/32 49/68/32
f 56/61/33 52/69/33 50/70/33 54/63/33
f 64/60/34 57/59/34 60/61/34 63/62/34
f 52/69/33 56/61/33 60/61/33 57/69/33
f 62/60/29 52/59/29 57/59/29 64/60/29
f 66/67/33 65/62/33 61/62/33 62/67/33
f 67/62/33 68/67/33 64/67/33 63/62/33
f 65/62/33 67/62/33 63/62/33 61/62/33
f 68/67/33 66/67/33 62/67/33 64/67/33
f 51/67/33 55/62/33 65/62/33 66/67/33
f 59/62/33 58/67/33 68/67/33 67/62/33
f 55/62/33 59/62/33 67/62/33 65/62/33
f 58/67/33 51/67/33 66/67/33 68/67/33
o Cube.014
v -0.499406 18.205273 0.585622
v -0.499406 18.861759 0.585622
v -1.145494 18.205273 0.585622
v -1.145494 18.861759 0.585622
v -0.499406 18.205273 -0.639057
v -0.499406 18.861759 -0.639057
v -1.145494 18.205273 -0.639058
v -1.145494 18.861759 -0.639058
v -2.593684 18.861759 0.585622
v -2.593684 18.205273 0.585622
v -2.593684 18.205273 -0.639058
v -2.593684 18.861759 -0.639058
v -1.145494 18.205273 -0.639058
v -1.145494 18.205273 0.585622
v -2.593684 18.205273 -0.639058
v -2.593684 18.205273 0.585622
v -1.145494 18.205273 -0.639058
v -1.145494 18.205273 0.585622
v -2.593684 18.205273 -0.639058
v -2.593684 18.205273 0.585622
vn -0.0000 -0.0000 1.0000
vn -0.0000 -0.0000 -1.0000
vn 1.0000 -0.0000 -0.0000
vn -0.0000 -1.0000 -0.0000
vn -0.0000 1.0000 -0.0000
vn -1.0000 -0.0000 -0.0000
vt 0.375000 0.000000
vt 0.625000 0.000000
vt 0.625000 0.250000
vt 0.375000 0.250000
vt 0.625000 0.500000
vt 0.375000 0.500000
vt 0.625000 0.750000
vt 0.375000 0.750000
vt 0.625000 1.000000
vt 0.375000 1.000000
vt 0.125000 0.500000
vt 0.125000 0.750000
vt 0.875000 0.500000
vt 0.875000 0.750000
s 0
usemtl Material.013
f 69/71/35 70/72/35 72/73/35 82/74/35
f 76/75/36 81/76/36 83/76/36 80/75/36
f 81/76/36 76/75/36 74/77/36 73/78/36
f 73/78/37 74/77/37 70/79/37 69/80/37
f 82/81/38 81/76/38 73/78/38 69/82/38
f 76/75/39 72/83/39 70/84/39 74/77/39
f 84/74/40 77/73/40 80/75/40 83/76/40
f 72/83/39 76/75/39 80/75/39 77/83/39
f 82/74/35 72/73/35 77/73/35 84/74/35
f 86/81/39 85/76/39 81/76/39 82/81/39
f 87/76/39 88/81/39 84/81/39 83/76/39
f 85/76/39 87/76/39 83/76/39 81/76/39
f 88/81/39 86/81/39 82/81/39 84/81/39
f 71/81/39 75/76/39 85/76/39 86/81/39
f 79/76/39 78/81/39 88/81/39 87/76/39
f 75/76/39 79/76/39 87/76/39 85/76/39
f 78/81/39 71/81/39 86/81/39 88/81/39
o Cube.016
v 0.612339 18.175730 0.547966
v 0.612339 18.832216 0.547966
v 0.612339 18.175730 1.194054
v 0.612339 18.832216 1.194054
v -0.612340 18.175730 0.547966
v -0.612340 18.832216 0.547966
v -0.612340 18.175730 1.194054
v -0.612340 18.832216 1.194054
v 0.612339 18.832216 2.642244
v 0.612339 18.175730 2.642244
v -0.612340 18.175730 2.642244
v -0.612340 18.832216 2.642244
v -0.612340 18.175730 1.194054
v 0.612339 18.175730 1.194054
v -0.612340 18.175730 2.642244
v 0.612339 18.175730 2.642244
v -0.612340 18.175730 1.194054
v 0.612339 18.175730 1.194054
v -0.612340 18.175730 2.642244
v 0.612339 18.175730 2.642244
vn 1.0000 -0.0000 -0.0000
vn -1.0000 -0.0000 -0.0000
vn -0.0000 -0.0000 -1.0000
vn -0.0000 -1.0000 -0.0000
vn -0.0000 1.0000 -0.0000
vn -0.0000 -0.0000 1.0000
vt 0.375000 0.000000
vt 0.625000 0.000000
vt 0.625000 0.250000
vt 0.375000 0.250000
vt 0.625000 0.500000
vt 0.375000 0.500000
vt 0.625000 0.750000
vt 0.375000 0.750000
vt 0.625000 1.000000
vt 0.375000 1.000000
vt 0.125000 0.500000
vt 0.125000 0.750000
vt 0.875000 0.500000
vt 0.875000 0.750000
s 0
usemtl Material.015
f 89/85/41 90/86/41 92/87/41 102/88/41
f 96/89/42 101/90/42 103/90/42 100/89/42
f 101/90/42 96/89/42 94/91/42 93/92/42
f 93/92/43 94/91/43 90/93/43 89/94/43
f 102/95/44 101/90/44 93/92/44 89/96/44
f 96/89/45 92/97/45 90/98/45 94/91/45
f 104/88/46 97/87/46 100/89/46 103/90/46
f 92/97/45 96/89/45 100/89/45 97/97/45
f 102/88/41 92/87/41 97/87/41 104/88/41
f 106/95/45 105/90/45 101/90/45 102/95/45
f 107/90/45 108/95/45 104/95/45 103/90/45
f 105/90/45 107/90/45 103/90/45 101/90/45
f 108/95/45 106/95/45 102/95/45 104/95/45
f 91/95/45 95/90/45 105/90/45 106/95/45
f 99/90/45 98/95/45 108/95/45 107/90/45
f 95/90/45 99/90/45 107/90/45 105/90/45
f 98/95/45 91/95/45 106/95/45 108/95/45
